<svg width="43" height="46" viewBox="0 0 43 46" fill="none" xmlns="http://www.w3.org/2000/svg">
<path d="M21.2 45.1C20.24 45.1 19.34 44.9 18.5 44.5L0.68001 34.6V27.94L19.22 38.14C19.82 38.54 20.48 38.74 21.2 38.74C21.88 38.74 22.54 38.54 23.18 38.14L33.38 32.5C34.3 31.98 35 31.32 35.48 30.52C35.96 29.68 36.2 28.74 36.2 27.7C36.2 26.62 35.96 25.68 35.48 24.88C35 24.04 34.3 23.36 33.38 22.84L21.32 16.12H21.08L18.44 17.62C18.4 17.62 18.38 17.64 18.38 17.68C18.38 17.68 18.38 17.7 18.38 17.74C18.38 17.78 18.38 17.82 18.38 17.86C18.42 17.86 18.46 17.86 18.5 17.86L31.58 25.12C32.62 25.72 33.14 26.58 33.14 27.7C33.14 28.82 32.62 29.66 31.58 30.22L22.76 35.14C22.24 35.38 21.72 35.5 21.2 35.5C20.64 35.5 20.1 35.38 19.58 35.14L6.14001 27.64C4.18001 26.56 2.70001 25.2 1.70001 23.56C0.74001 21.88 0.26001 19.94 0.26001 17.74C0.26001 15.54 0.74001 13.6 1.70001 11.92C2.70001 10.24 4.18001 8.86 6.14001 7.78L18.5 0.879998C19.34 0.479999 20.24 0.279999 21.2 0.279999C22.12 0.279999 23 0.479999 23.84 0.879998L41.72 10.84V17.5L23.18 7.24C22.54 6.88 21.88 6.7 21.2 6.7C20.48 6.7 19.82 6.88 19.22 7.24L8.96001 12.88C8.04001 13.4 7.32001 14.08 6.80001 14.92C6.32001 15.72 6.08001 16.66 6.08001 17.74C6.08001 18.78 6.32001 19.72 6.80001 20.56C7.32001 21.4 8.04001 22.06 8.96001 22.54L21.08 29.26C21.16 29.3 21.24 29.3 21.32 29.26L23.9 27.76C23.94 27.76 23.96 27.76 23.96 27.76C23.96 27.72 23.98 27.68 24.02 27.64C23.98 27.64 23.96 27.62 23.96 27.58C23.96 27.54 23.94 27.52 23.9 27.52L10.64 20.2C9.68001 19.68 9.20001 18.86 9.20001 17.74C9.16001 16.62 9.64001 15.8 10.64 15.28L19.58 10.24C20.1 10 20.64 9.88 21.2 9.88C21.72 9.88 22.24 10 22.76 10.24L36.2 17.74C38.16 18.82 39.62 20.2 40.58 21.88C41.58 23.56 42.08 25.5 42.08 27.7C42.08 29.9 41.58 31.84 40.58 33.52C39.62 35.16 38.16 36.52 36.2 37.6L23.84 44.5C23 44.94 22.12 45.14 21.2 45.1Z" fill="white"/>
</svg>
